<svg width="175" height="148" viewBox="0 0 175 148" fill="none" xmlns="http://www.w3.org/2000/svg">
<path d="M9.5 4.75C9.5 7.37336 7.37336 9.5 4.75 9.5C2.12664 9.5 0 7.37336 0 4.75C0 2.12664 2.12664 0 4.75 0C7.37336 0 9.5 2.12664 9.5 4.75Z" fill="white"/>
<path d="M64.5 4.75C64.5 7.37336 62.3734 9.5 59.75 9.5C57.1266 9.5 55 7.37336 55 4.75C55 2.12664 57.1266 0 59.75 0C62.3734 0 64.5 2.12664 64.5 4.75Z" fill="white"/>
<path d="M119.5 4.75C119.5 7.37336 117.373 9.5 114.75 9.5C112.127 9.5 110 7.37336 110 4.75C110 2.12664 112.127 0 114.75 0C117.373 0 119.5 2.12664 119.5 4.75Z" fill="white"/>
<path d="M174.5 4.75C174.5 7.37336 172.373 9.5 169.75 9.5C167.127 9.5 165 7.37336 165 4.75C165 2.12664 167.127 0 169.75 0C172.373 0 174.5 2.12664 174.5 4.75Z" fill="white"/>
<path d="M9.5 50.75C9.5 53.3734 7.37336 55.5 4.75 55.5C2.12664 55.5 0 53.3734 0 50.75C0 48.1266 2.12664 46 4.75 46C7.37336 46 9.5 48.1266 9.5 50.75Z" fill="white"/>
<path d="M64.5 50.75C64.5 53.3734 62.3734 55.5 59.75 55.5C57.1266 55.5 55 53.3734 55 50.75C55 48.1266 57.1266 46 59.75 46C62.3734 46 64.5 48.1266 64.5 50.75Z" fill="white"/>
<path d="M119.5 50.75C119.5 53.3734 117.373 55.5 114.75 55.5C112.127 55.5 110 53.3734 110 50.75C110 48.1266 112.127 46 114.75 46C117.373 46 119.5 48.1266 119.5 50.75Z" fill="white"/>
<path d="M174.5 50.75C174.5 53.3734 172.373 55.5 169.75 55.5C167.127 55.5 165 53.3734 165 50.75C165 48.1266 167.127 46 169.75 46C172.373 46 174.5 48.1266 174.5 50.75Z" fill="white"/>
<path d="M9.5 142.75C9.5 145.373 7.37336 147.5 4.75 147.5C2.12664 147.5 0 145.373 0 142.75C0 140.127 2.12664 138 4.75 138C7.37336 138 9.5 140.127 9.5 142.75Z" fill="white"/>
<path d="M64.5 142.75C64.5 145.373 62.3734 147.5 59.75 147.5C57.1266 147.5 55 145.373 55 142.75C55 140.127 57.1266 138 59.75 138C62.3734 138 64.5 140.127 64.5 142.75Z" fill="white"/>
<path d="M119.5 142.75C119.5 145.373 117.373 147.5 114.75 147.5C112.127 147.5 110 145.373 110 142.75C110 140.127 112.127 138 114.75 138C117.373 138 119.5 140.127 119.5 142.75Z" fill="white"/>
<path d="M174.5 142.75C174.5 145.373 172.373 147.5 169.75 147.5C167.127 147.5 165 145.373 165 142.75C165 140.127 167.127 138 169.75 138C172.373 138 174.5 140.127 174.5 142.75Z" fill="white"/>
<path d="M9.5 96.75C9.5 99.3734 7.37336 101.5 4.75 101.5C2.12664 101.5 0 99.3734 0 96.75C0 94.1266 2.12664 92 4.75 92C7.37336 92 9.5 94.1266 9.5 96.75Z" fill="white"/>
<path d="M64.5 96.75C64.5 99.3734 62.3734 101.5 59.75 101.5C57.1266 101.5 55 99.3734 55 96.75C55 94.1266 57.1266 92 59.75 92C62.3734 92 64.5 94.1266 64.5 96.75Z" fill="white"/>
<path d="M119.5 96.75C119.5 99.3734 117.373 101.5 114.75 101.5C112.127 101.5 110 99.3734 110 96.75C110 94.1266 112.127 92 114.75 92C117.373 92 119.5 94.1266 119.5 96.75Z" fill="white"/>
<path d="M174.5 96.75C174.5 99.3734 172.373 101.5 169.75 101.5C167.127 101.5 165 99.3734 165 96.75C165 94.1266 167.127 92 169.75 92C172.373 92 174.5 94.1266 174.5 96.75Z" fill="white"/>
</svg>
